<svg xmlns="http://www.w3.org/2000/svg" version="1.1" xmlns:xlink="http://www.w3.org/1999/xlink" xmlns:svgjs="http://svgjs.dev/svgjs" width="1000" height="750" viewBox="0 0 1000 750"><rect width="1000" height="750" fill="#1ebbd7"></rect><g transform="matrix(0.834,0,0,0.834,82.49454545454546,115.4193570850203)"><svg viewBox="0 0 396 247" data-background-color="#1ebbd7" preserveAspectRatio="xMidYMid meet" height="623" width="1000" xmlns="http://www.w3.org/2000/svg" xmlns:xlink="http://www.w3.org/1999/xlink"><g id="tight-bounds" transform="matrix(1,0,0,1,0.2400000000000091,-0.09999999999999432)"><svg viewBox="0 0 395.52 247.2" height="247.2" width="395.52"><g><svg></svg></g><g><svg viewBox="0 0 395.52 247.2" height="247.2" width="395.52"><g transform="matrix(1,0,0,1,149.6306185162145,47.215199999999996)"><svg viewBox="0 0 96.25876296757096 152.7696" height="152.7696" width="96.25876296757096"><g><svg viewBox="0 0 96.25876296757096 152.7696" height="152.7696" width="96.25876296757096"><g><svg viewBox="0 0 122.69617591981395 194.7276812929171" height="152.7696" width="96.25876296757096"><g><svg viewBox="0 0 122.69617591981395 194.7276812929171" height="194.7276812929171" width="122.69617591981395"><g id="textblocktransform"><svg viewBox="0 0 122.69617591981395 194.7276812929171" height="194.7276812929171" width="122.69617591981395" id="textblock"><g><svg viewBox="0 0 122.69617591981395 151.825483872" height="151.825483872" width="122.69617591981395"><g transform="matrix(1,0,0,1,0,0)"><svg width="122.69617591981395" viewBox="3.700000047683716 -34.400001525878906 27.799999237060547 34.400001525878906" height="151.825483872" data-palette-color="#010c80"><path d="M3.7 0L3.7-34.4 31.5-34.4 31.5-26.15 14.75-26.15 14.75-20.25 29.15-20.25 29.15-12.35 14.75-12.35 14.75 0 3.7 0Z" opacity="1" transform="matrix(1,0,0,1,0,0)" fill="#010c80" class="wordmark-text-0" data-fill-palette-color="primary" id="text-0"></path></svg></g></svg></g><g transform="matrix(1,0,0,1,0,187.66783680256628)"><svg viewBox="0 0 122.69617591981395 7.059844490350819" height="7.059844490350819" width="122.69617591981395"><g transform="matrix(1,0,0,1,0,0)"><svg width="122.69617591981395" viewBox="3.049999952316284 -35.45000076293945 783.7329711914062 45.099998474121094" height="7.059844490350819" data-palette-color="#77d4fc"><path d="M27.05-25.95L27.05-25.95Q27.05-20.75 22.55-18.05L22.55-18.05Q25-17.15 26.65-14.95 28.3-12.75 28.3-8.72 28.3-4.7 25.33-2.35 22.35 0 16.8 0L16.8 0 5 0Q4.15 0 3.6-0.58 3.05-1.15 3.05-2.1L3.05-2.1 3.05-34.1Q3.05-34.65 3.23-34.83 3.4-35 3.95-35L3.95-35 15.35-35Q27.05-35 27.05-25.95ZM13.7-26.9L12.65-26.9 12.65-20.35 12.9-20.35Q17.7-20.35 17.7-23.55L17.7-23.55Q17.7-25.3 16.78-26.1 15.85-26.9 13.7-26.9L13.7-26.9ZM13.7-14.45L12.65-14.45 12.65-7.95 13.55-7.95Q15.7-7.95 16.7-8.75 17.7-9.55 17.7-11.3 17.7-13.05 16.78-13.75 15.85-14.45 13.7-14.45L13.7-14.45ZM31.7-9.95L31.7-24.7Q31.7-25.25 36-25.25 40.3-25.25 40.3-24.7L40.3-24.7 40.3-10.1Q40.3-7.6 41.9-7.6L41.9-7.6Q43.1-7.6 44.6-8.65L44.6-8.65 44.6-24.7Q44.6-25.2 48.85-25.2 53.1-25.2 53.1-24.7L53.1-24.7 53.1-8.3 54.4-8.3Q56.1-8.3 56.1-5.05L56.1-5.05Q56.1-3.4 55.4-1.7L55.4-1.7Q54.4 0.5 52.7 0.5L52.7 0.5Q49.35 0.5 47.75-2.25L47.75-2.25 47.7-2.2Q44.65 0.5 41.15 0.5L41.15 0.5Q36.3 0.5 34-1.93 31.7-4.35 31.7-9.95L31.7-9.95ZM68.3-24.85L68.3-0.3Q68.3 0.1 63.72 0.1 59.15 0.1 59.15-0.25L59.15-0.25 59.15-24.8Q59.15-25.15 63.72-25.15 68.3-25.15 68.3-24.85L68.3-24.85ZM68.3-35.15L68.3-27.8Q68.3-27.45 63.72-27.45 59.15-27.45 59.15-27.75L59.15-27.75 59.15-34.95Q59.15-35.45 63.72-35.45 68.3-35.45 68.3-35.15L68.3-35.15ZM81.89-34.65L81.89-0.4Q81.89 0.05 76.79 0.05L76.79 0.05Q72.79 0 72.79-0.35L72.79-0.35 72.79-34.4Q72.79-35.15 77.64-35.15L77.64-35.15Q81.89-35 81.89-34.65L81.89-34.65ZM99.04-25.2L99.04-34.7Q99.04-35.45 102.99-35.45L102.99-35.45Q104.34-35.45 106.12-35.27 107.89-35.1 107.89-34.8L107.89-34.8 107.89-8.45 109.64-8.45Q110.89-8.45 111.29-6.2L111.29-6.2Q111.39-5.55 111.39-4.42 111.39-3.3 110.69-1.7L110.69-1.7Q109.69 0.5 107.49 0.5L107.49 0.5Q105.84 0.5 104.57-0.15 103.29-0.8 102.84-1.5L102.84-1.5 102.39-2.15Q99.64 0.5 95.49 0.5 91.34 0.5 88.39-2.95 85.44-6.4 85.44-12.58 85.44-18.75 88.54-22.13 91.64-25.5 96.29-25.5L96.29-25.5Q97.64-25.5 99.04-25.2L99.04-25.2ZM97.39-17.5L97.39-17.5Q94.59-17.5 94.59-12.45L94.59-12.45Q94.59-9.9 95.39-8.78 96.19-7.65 97.17-7.65 98.14-7.65 99.04-8.5L99.04-8.5 99.04-17Q98.19-17.5 97.39-17.5ZM123.79-24.85L123.79-0.3Q123.79 0.1 119.21 0.1 114.64 0.1 114.64-0.25L114.64-0.25 114.64-24.8Q114.64-25.15 119.21-25.15 123.79-25.15 123.79-24.85L123.79-24.85ZM123.79-35.15L123.79-27.8Q123.79-27.45 119.21-27.45 114.64-27.45 114.64-27.75L114.64-27.75 114.64-34.95Q114.64-35.45 119.21-35.45 123.79-35.45 123.79-35.15L123.79-35.15ZM138.74-16.35L138.74-0.3Q138.74 0.05 135.14 0.05L135.14 0.05Q130.14-0.1 130.14-0.5L130.14-0.5 130.14-16.7 128.84-16.7Q127.54-16.7 127.14-18.9L127.14-18.9Q127.04-19.55 127.04-20.2L127.04-20.2Q127.04-21.75 127.64-23.3L127.64-23.3Q128.54-25.5 130.44-25.5 132.34-25.5 133.84-24.6 135.34-23.7 135.84-22.8L135.84-22.8Q138.99-25.5 143.34-25.5 147.69-25.5 149.64-23.15 151.59-20.8 151.59-15.45L151.59-15.45 151.59-0.45Q151.59 0.15 147.31 0.15 143.04 0.15 143.04-0.45L143.04-0.45 143.04-14.9Q143.04-17.4 141.29-17.4L141.29-17.4Q140.79-17.4 139.89-16.98 138.99-16.55 138.74-16.35L138.74-16.35ZM165.03 0L165.03 0Q160.18 0 157.53-3.13 154.88-6.25 154.88-12.38 154.88-18.5 158.36-21.98 161.83-25.45 167.61-25.45 173.38-25.45 177.13-22.9L177.13-22.9 177.13 2Q177.13 5.7 174.13 7.68 171.13 9.65 166.43 9.65 161.73 9.65 158.03 8.45L158.03 8.45Q157.53 7.25 157.53 6.3L157.53 6.3Q157.53 3.1 158.58 1.6L158.58 1.6Q161.93 3.05 165.73 3.05L165.73 3.05Q168.48 3.05 168.48 1.1L168.48 1.1 168.48-0.4Q166.33 0 165.03 0ZM167.33-17.3L167.33-17.3Q163.98-17.3 163.98-12.25L163.98-12.25Q163.98-9.1 165.28-8.15L165.28-8.15Q166.13-7.5 166.98-7.5 167.83-7.5 168.48-7.65L168.48-7.65 168.48-17.15Q167.88-17.3 167.33-17.3ZM206.33-25.9L206.33-0.8Q206.33 0.2 201.38 0.2 196.43 0.2 196.43-0.8L196.43-0.8 196.43-25.9 190.43-25.9Q189.58-25.9 189.23-28.2L189.23-28.2Q189.08-29.3 189.08-30.45 189.08-31.6 189.23-32.7L189.23-32.7Q189.58-35 190.43-35L190.43-35 212.18-35Q213.03-35 213.38-32.7L213.38-32.7Q213.53-31.6 213.53-30.45 213.53-29.3 213.38-28.2L213.38-28.2Q213.03-25.9 212.18-25.9L212.18-25.9 206.33-25.9ZM216.55-2.95Q213.43-6.4 213.43-12.5 213.43-18.6 216.55-22.05 219.68-25.5 224.98-25.5 230.28-25.5 233.38-22.05 236.48-18.6 236.48-12.5 236.48-6.4 233.38-2.95 230.28 0.5 224.98 0.5 219.68 0.5 216.55-2.95ZM225-17.15Q222.18-17.15 222.18-12.55 222.18-7.95 225-7.95 227.83-7.95 227.83-12.55 227.83-17.15 225-17.15ZM262.67-16.3L262.67-0.25Q262.67 0.1 258.4 0.1 254.12 0.1 254.12-0.35L254.12-0.35 254.12-14.9Q254.12-17.4 252.47-17.4L252.47-17.4Q251.62-17.4 250.22-16.3L250.22-16.3 250.22-0.3Q250.22 0.2 245.95 0.2 241.67 0.2 241.67-0.35L241.67-0.35 241.67-16.7 240.42-16.7Q238.77-16.7 238.77-20.15L238.77-20.15Q238.77-21.7 239.37-23.3L239.37-23.3Q240.17-25.5 241.97-25.5 243.77-25.5 245.45-24.55 247.12-23.6 247.47-22.75L247.47-22.75Q250.57-25.5 254.35-25.5 258.12-25.5 260.42-23.15L260.42-23.15Q263.12-25.5 266.92-25.5L266.92-25.5Q275.17-25.5 275.17-15.45L275.17-15.45 275.17-0.25Q275.17 0.1 270.9 0.1 266.62 0.1 266.62-0.35L266.62-0.35 266.62-14.9Q266.62-17.4 264.97-17.4L264.97-17.4Q264.07-17.4 262.67-16.3L262.67-16.3ZM281.6-2.95Q278.47-6.4 278.47-12.5 278.47-18.6 281.6-22.05 284.72-25.5 290.02-25.5 295.32-25.5 298.42-22.05 301.52-18.6 301.52-12.5 301.52-6.4 298.42-2.95 295.32 0.5 290.02 0.5 284.72 0.5 281.6-2.95ZM290.05-17.15Q287.22-17.15 287.22-12.55 287.22-7.95 290.05-7.95 292.87-7.95 292.87-12.55 292.87-17.15 290.05-17.15ZM316.02-14L316.02-0.05Q316.02 0.3 311.47 0.3L311.47 0.3Q306.92 0.2 306.92-0.1L306.92-0.1 306.92-16.7 305.57-16.7Q304.77-16.7 304.29-17.68 303.82-18.65 303.82-20.1L303.82-20.1Q303.82-25.5 307.02-25.5L307.02-25.5Q309.27-25.5 310.77-24.13 312.27-22.75 312.27-21L312.27-21Q313.32-23.05 315.09-24.28 316.87-25.5 318.72-25.5L318.72-25.5Q321.62-25.5 322.22-24L322.22-24Q322.37-23.6 322.37-22.83 322.37-22.05 321.89-20.05 321.42-18.05 320.92-17.15 320.42-16.25 320.32-16.25 320.22-16.25 319.39-16.63 318.57-17 317.92-17L317.92-17Q316.02-17 316.02-14L316.02-14ZM335.82-14L335.82-0.05Q335.82 0.3 331.27 0.3L331.27 0.3Q326.72 0.2 326.72-0.1L326.72-0.1 326.72-16.7 325.37-16.7Q324.57-16.7 324.09-17.68 323.62-18.65 323.62-20.1L323.62-20.1Q323.62-25.5 326.82-25.5L326.82-25.5Q329.07-25.5 330.57-24.13 332.07-22.75 332.07-21L332.07-21Q333.12-23.05 334.89-24.28 336.67-25.5 338.52-25.5L338.52-25.5Q341.42-25.5 342.02-24L342.02-24Q342.17-23.6 342.17-22.83 342.17-22.05 341.69-20.05 341.22-18.05 340.72-17.15 340.22-16.25 340.12-16.25 340.02-16.25 339.19-16.63 338.37-17 337.72-17L337.72-17Q335.82-17 335.82-14L335.82-14ZM346.84-2.95Q343.71-6.4 343.71-12.5 343.71-18.6 346.84-22.05 349.96-25.5 355.26-25.5 360.56-25.5 363.66-22.05 366.76-18.6 366.76-12.5 366.76-6.4 363.66-2.95 360.56 0.5 355.26 0.5 349.96 0.5 346.84-2.95ZM355.29-17.15Q352.46-17.15 352.46-12.55 352.46-7.95 355.29-7.95 358.11-7.95 358.11-12.55 358.11-17.15 355.29-17.15ZM394.46-8.4L396.26-24.75Q396.26-25.2 399.01-25.2L399.01-25.2Q405.21-25.2 405.11-24.8L405.11-24.8 400.21-0.5Q400.06 0.3 394.66 0.3 389.26 0.3 389.11-0.5L389.11-0.5 387.06-11.7 384.51-0.5Q384.36 0.25 378.79 0.25 373.21 0.25 373.06-0.65L373.06-0.65 368.61-25Q368.46-25.3 372.91-25.3L372.91-25.3Q377.31-25.25 377.31-25.1L377.31-25.1 379.61-8.2 383.76-24.9Q383.86-25.2 387.06-25.2 390.26-25.2 390.36-24.9L390.36-24.9 394.46-8.4ZM414.36-21.3Q413.66-21.1 412.96-21.1 412.26-21.1 411.56-21.3L411.56-21.3Q410.16-21.7 410.16-22.6L410.16-22.6 409.16-33.15Q409.16-34.05 411.06-34.45L411.06-34.45Q412.01-34.65 412.96-34.65 413.91-34.65 414.86-34.45L414.86-34.45Q416.81-34.05 416.81-33.15L416.81-33.15 415.81-22.6Q415.81-21.7 414.36-21.3L414.36-21.3ZM424.01-9L424.01-9Q428.06-6.55 430.41-6.55L430.41-6.55Q431.91-6.55 431.91-7.6L431.91-7.6Q431.91-8.35 429.31-9.55L429.31-9.55Q423.06-12.1 423.06-17.9L423.06-17.9Q423.06-21.6 425.76-23.55 428.46-25.5 432.23-25.5 436.01-25.5 438.63-24.7 441.26-23.9 441.26-22.6L441.26-22.6Q441.26-21.5 440.18-19.7 439.11-17.9 438.71-17.75L438.71-17.75Q436.56-18.95 434.06-18.95L434.06-18.95Q432.71-18.95 432.71-18L432.71-18Q432.71-17.4 433.23-16.98 433.76-16.55 435.16-15.93 436.56-15.3 437.48-14.8 438.41-14.3 439.56-13.4L439.56-13.4Q441.96-11.5 441.96-8.45L441.96-8.45Q441.96-4.45 439.31-1.98 436.66 0.5 431.31 0.5L431.31 0.5Q427.76 0.5 424.86-0.7 421.96-1.9 421.96-4L421.96-4Q421.96-5.4 422.63-6.95 423.31-8.5 424.01-9ZM456.4-12.2L456.4-12.2Q457.35-11.45 459.68-10.15 462-8.85 464.13-8.85 466.25-8.85 466.25-10.5L466.25-10.5Q466.25-11.25 465.65-11.83 465.05-12.4 463.45-13.15 461.85-13.9 461.05-14.33 460.25-14.75 458.93-15.73 457.6-16.7 456.9-17.75L456.9-17.75Q454.9-20.6 454.9-25 454.9-29.4 458.18-32.43 461.45-35.45 466.75-35.45L466.75-35.45Q470.35-35.45 473.4-34.68 476.45-33.9 476.55-32.65L476.55-32.65Q476.55-32.5 476.55-32.35L476.55-32.35Q476.55-30.6 475.45-27.93 474.35-25.25 473.9-24.95L473.9-24.95Q470.7-26.6 468.18-26.6 465.65-26.6 465.65-24.8L465.65-24.8Q465.65-23.7 467.5-22.85L467.5-22.85Q467.9-22.65 468.65-22.3 469.4-21.95 470.38-21.48 471.35-21 472.48-20.28 473.6-19.55 474.9-18.35L474.9-18.35Q477.55-15.85 477.55-11.75L477.55-11.75Q477.55-6.4 474.6-3 471.65 0.4 465.5 0.5L465.5 0.5Q462.5 0.5 460.08 0 457.65-0.5 455.85-1.95 454.05-3.4 454.05-5.45 454.05-7.5 454.8-9.53 455.55-11.55 456.4-12.2ZM483.57-2.95Q480.45-6.4 480.45-12.5 480.45-18.6 483.57-22.05 486.7-25.5 492-25.5 497.3-25.5 500.4-22.05 503.5-18.6 503.5-12.5 503.5-6.4 500.4-2.95 497.3 0.5 492 0.5 486.7 0.5 483.57-2.95ZM492.02-17.15Q489.2-17.15 489.2-12.55 489.2-7.95 492.02-7.95 494.85-7.95 494.85-12.55 494.85-17.15 492.02-17.15ZM509-0.6L509-18.35 506.55-18.35Q505.8-18.35 505.8-21.68 505.8-25 506.55-25L506.55-25 509-25 509-26.1Q509-31.4 511.22-33.43 513.45-35.45 517.45-35.45 521.45-35.45 524.5-34L524.5-34Q524.9-33.85 524.9-32.93 524.9-32 524.05-29.95 523.2-27.9 522.6-27.6L522.6-27.6Q520.9-28.65 519.1-28.65L519.1-28.65Q517.15-28.65 517.15-26.05L517.15-26.05 517.15-25 521.3-25Q522.2-25 522.2-21.8L522.2-21.8Q522.2-18.3 521.05-18.3L521.05-18.3 517.85-18.3 517.85-0.6Q517.85 0 513.42 0 509 0 509-0.6L509-0.6ZM535.79-18L535.79-0.3Q535.79 0.3 531.59 0.3L531.59 0.3Q526.59 0.1 526.59-0.35L526.59-0.35 526.59-18.05 524.04-18.05Q523.04-18.05 523.04-21.5L523.04-21.5Q523.04-22.4 523.22-23.7 523.39-25 523.94-25L523.94-25 526.59-25 526.59-29.4Q526.59-30.4 530.82-30.4 535.04-30.4 535.04-29.6L535.04-29.6 535.04-26.4 535.09-25 539.34-25Q540.19-25 540.19-21.5 540.19-18 539.34-18L539.34-18 535.79-18ZM566.84-8.4L568.64-24.75Q568.64-25.2 571.39-25.2L571.39-25.2Q577.59-25.2 577.49-24.8L577.49-24.8 572.59-0.5Q572.44 0.3 567.04 0.3 561.64 0.3 561.49-0.5L561.49-0.5 559.44-11.7 556.89-0.5Q556.74 0.25 551.16 0.25 545.59 0.25 545.44-0.65L545.44-0.65 540.99-25Q540.84-25.3 545.29-25.3L545.29-25.3Q549.69-25.25 549.69-25.1L549.69-25.1 551.99-8.2 556.14-24.9Q556.24-25.2 559.44-25.2 562.64-25.2 562.74-24.9L562.74-24.9 566.84-8.4ZM583.44-18.15L583.44-18.15Q582.04-20.65 582.04-22.23 582.04-23.8 582.89-24.25L582.89-24.25Q585.74-25.5 590.71-25.5 595.69-25.5 597.74-23.18 599.79-20.85 599.79-16.3L599.79-16.3 599.79-8.4 601.49-8.4Q602.34-8.4 602.81-7.4 603.29-6.4 603.29-4.65 603.29-2.9 602.41-1.2 601.54 0.5 600.04 0.5L600.04 0.5Q597.34 0.5 595.69-0.95L595.69-0.95Q594.94-1.55 594.54-2.4L594.54-2.4Q592.24 0.5 587.39 0.5L587.39 0.5Q583.74 0.5 581.24-2.1 578.74-4.7 578.74-8.25L578.74-8.25Q578.74-16.4 588.49-16.4L588.49-16.4 591.24-16.4 591.24-16.9Q591.24-18.2 590.81-18.57 590.39-18.95 588.84-18.95L588.84-18.95Q586.94-18.95 583.44-18.15ZM587.44-8.95L587.44-8.95Q587.44-7.85 588.04-7.28 588.64-6.7 589.56-6.7 590.49-6.7 591.24-7.45L591.24-7.45 591.24-11.3 589.84-11.3Q587.44-11.3 587.44-8.95ZM617.08-14L617.08-0.05Q617.08 0.3 612.53 0.3L612.53 0.3Q607.98 0.2 607.98-0.1L607.98-0.1 607.98-16.7 606.63-16.7Q605.83-16.7 605.36-17.68 604.88-18.65 604.88-20.1L604.88-20.1Q604.88-25.5 608.08-25.5L608.08-25.5Q610.33-25.5 611.83-24.13 613.33-22.75 613.33-21L613.33-21Q614.38-23.05 616.16-24.28 617.93-25.5 619.78-25.5L619.78-25.5Q622.68-25.5 623.28-24L623.28-24Q623.43-23.6 623.43-22.83 623.43-22.05 622.96-20.05 622.48-18.05 621.98-17.15 621.48-16.25 621.38-16.25 621.28-16.25 620.46-16.63 619.63-17 618.98-17L618.98-17Q617.08-17 617.08-14L617.08-14ZM644.83-1.35L644.83-1.35Q641.68 0.5 636.73 0.5 631.78 0.5 628.38-2.88 624.98-6.25 624.98-12.23 624.98-18.2 628.26-21.85 631.53-25.5 636.53-25.5 641.53-25.5 644.26-22.95 646.98-20.4 646.98-16.75L646.98-16.75Q646.98-8.65 637.68-8.65L637.68-8.65 634.23-8.65Q634.23-7.15 635.06-6.58 635.88-6 637.48-6L637.48-6Q640.98-6 644.13-7.6L644.13-7.6Q644.18-7.65 644.58-6.9L644.58-6.9Q645.78-4.75 645.78-3.28 645.78-1.8 644.83-1.35ZM638.58-15.8L638.58-15.8Q638.58-17.9 636.53-17.9L636.53-17.9Q635.58-17.9 634.91-17.32 634.23-16.75 634.23-15.65L634.23-15.65 634.23-14.1 636.93-14.1Q638.58-14.1 638.58-15.8ZM674.93-25.9L674.93-0.8Q674.93 0.2 669.98 0.2 665.03 0.2 665.03-0.8L665.03-0.8 665.03-25.9 659.03-25.9Q658.18-25.9 657.83-28.2L657.83-28.2Q657.68-29.3 657.68-30.45 657.68-31.6 657.83-32.7L657.83-32.7Q658.18-35 659.03-35L659.03-35 680.78-35Q681.63-35 681.98-32.7L681.98-32.7Q682.13-31.6 682.13-30.45 682.13-29.3 681.98-28.2L681.98-28.2Q681.63-25.9 680.78-25.9L680.78-25.9 674.93-25.9ZM685.15-2.95Q682.02-6.4 682.02-12.5 682.02-18.6 685.15-22.05 688.27-25.5 693.57-25.5 698.87-25.5 701.97-22.05 705.07-18.6 705.07-12.5 705.07-6.4 701.97-2.95 698.87 0.5 693.57 0.5 688.27 0.5 685.15-2.95ZM693.6-17.15Q690.77-17.15 690.77-12.55 690.77-7.95 693.6-7.95 696.42-7.95 696.42-12.55 696.42-17.15 693.6-17.15ZM721.27-25.2L721.27-34.7Q721.27-35.45 725.22-35.45L725.22-35.45Q726.57-35.45 728.35-35.27 730.12-35.1 730.12-34.8L730.12-34.8 730.12-8.45 731.87-8.45Q733.12-8.45 733.52-6.2L733.52-6.2Q733.62-5.55 733.62-4.42 733.62-3.3 732.92-1.7L732.92-1.7Q731.92 0.5 729.72 0.5L729.72 0.5Q728.07 0.5 726.8-0.15 725.52-0.8 725.07-1.5L725.07-1.5 724.62-2.15Q721.87 0.5 717.72 0.5 713.57 0.5 710.62-2.95 707.67-6.4 707.67-12.58 707.67-18.75 710.77-22.13 713.87-25.5 718.52-25.5L718.52-25.5Q719.87-25.5 721.27-25.2L721.27-25.2ZM719.62-17.5L719.62-17.5Q716.82-17.5 716.82-12.45L716.82-12.45Q716.82-9.9 717.62-8.78 718.42-7.65 719.4-7.65 720.37-7.65 721.27-8.5L721.27-8.5 721.27-17Q720.42-17.5 719.62-17.5ZM740.02-18.15L740.02-18.15Q738.62-20.65 738.62-22.23 738.62-23.8 739.47-24.25L739.47-24.25Q742.32-25.5 747.29-25.5 752.27-25.5 754.32-23.18 756.37-20.85 756.37-16.3L756.37-16.3 756.37-8.4 758.07-8.4Q758.92-8.4 759.39-7.4 759.87-6.4 759.87-4.65 759.87-2.9 758.99-1.2 758.12 0.5 756.62 0.5L756.62 0.5Q753.92 0.5 752.27-0.95L752.27-0.95Q751.52-1.55 751.12-2.4L751.12-2.4Q748.82 0.5 743.97 0.5L743.97 0.5Q740.32 0.5 737.82-2.1 735.32-4.7 735.32-8.25L735.32-8.25Q735.32-16.4 745.07-16.4L745.07-16.4 747.82-16.4 747.82-16.9Q747.82-18.2 747.39-18.57 746.97-18.95 745.42-18.95L745.42-18.95Q743.52-18.95 740.02-18.15ZM744.02-8.95L744.02-8.95Q744.02-7.85 744.62-7.28 745.22-6.7 746.14-6.7 747.07-6.7 747.82-7.45L747.82-7.45 747.82-11.3 746.42-11.3Q744.02-11.3 744.02-8.95ZM769.47-2L760.97-24.75Q760.97-25.3 765.54-25.3 770.12-25.3 770.27-24.8L770.27-24.8 773.87-13 777.32-24.9Q777.52-25.3 780.42-25.3L780.42-25.3Q787.07-25.3 786.77-24.65L786.77-24.65 775.02 8.8Q774.97 9.1 772.29 9.1 769.62 9.1 767.32 8.93 765.02 8.75 765.12 8.5L765.12 8.5 769.47-2Z" opacity="1" transform="matrix(1,0,0,1,0,0)" fill="#77d4fc" class="slogan-text-1" data-fill-palette-color="secondary" id="text-1"></path></svg></g></svg></g></svg></g></svg></g></svg></g></svg></g></svg></g><path d="M66.623 41.215L66.623 0 313.823 0 313.823 247.2 66.623 247.2 66.623 205.985 77.365 205.985 77.365 236.458 303.082 236.458 303.082 10.742 77.365 10.742 77.365 41.215Z" fill="#010c80" stroke="transparent" data-fill-palette-color="primary"></path></svg></g><defs></defs></svg><rect width="395.52" height="247.2" fill="none" stroke="none" visibility="hidden"></rect></g></svg></g></svg>